<?xml version="1.0" encoding="utf-8"?>
<!-- Generator: Adobe Illustrator 19.0.0, SVG Export Plug-In . SVG Version: 6.00 Build 0)  -->
<svg version="1.1" id="Layer_1" xmlns="http://www.w3.org/2000/svg" xmlns:xlink="http://www.w3.org/1999/xlink" x="0px" y="0px"
	 viewBox="0 0 500 500" style="enable-background:new 0 0 500 500;" xml:space="preserve">
<style type="text/css">
	.st0{fill:#85888C;}
	.st1{fill:#EE7917;}
	.st2{fill:#DC5809;}
	.st3{fill:#F9B500;}
	.st4{fill:#B5B6B6;}
	.st5{fill:#E8E9E8;}
	.st6{fill:#E2A200;}
	.st7{fill:#FFD600;}
	.st8{fill:#F7B700;}
	.st9{fill:#3A3C42;}
</style>
<g id="XMLID_1_">
	<path id="XMLID_3_" class="st0" d="M194.7,307.9c-1.4-0.9-3.2-1.3-5.1-1.3c-4.5,0-7.3,3.5-7.3,7.8c0,3,2,5.3,5.2,5.3
		c0.8,0,1.4,0,1.8-0.2l1-4.9h-3.9l0.6-2.9h7.4l-2.1,10c-1.1,0.4-3.1,0.8-4.9,0.8c-5.4,0-9-2.5-9-8.1c0-6.7,4.4-10.8,11-10.8
		c2,0,4.2,0.3,6.1,1L194.7,307.9z"/>
	<path id="XMLID_6_" class="st0" d="M210,314.4c0,4.7-3.3,8.2-8.1,8.2c-3.8,0-6.1-2.4-6.1-6.2c0-4.5,3.5-8,8-8
		C207.4,308.5,210,310.7,210,314.4 M206.3,314.4c0-1.8-0.6-3.2-2.7-3.2c-2.8,0-4.2,3.1-4.2,5.5c0,1.8,0.7,3.2,2.8,3.2
		C204.9,319.9,206.3,316.8,206.3,314.4"/>
	<path id="XMLID_9_" class="st0" d="M225.2,314.4c0,4.7-3.3,8.2-8.1,8.2c-3.8,0-6.1-2.4-6.1-6.2c0-4.5,3.5-8,8-8
		C222.7,308.5,225.2,310.7,225.2,314.4 M221.6,314.4c0-1.8-0.6-3.2-2.7-3.2c-2.8,0-4.2,3.1-4.2,5.5c0,1.8,0.7,3.2,2.8,3.2
		C220.2,319.9,221.6,316.8,221.6,314.4"/>
	<path id="XMLID_12_" class="st0" d="M242.5,302.6l-3.6,16.7c-0.2,1.2-0.4,2.3-0.5,3H235l0.3-2h-0.1c-1,1.5-2.4,2.3-4.4,2.3
		c-3.2,0-4.6-2.7-4.6-5.6c0-4,2.2-8.5,6.8-8.5c1.7,0,3.1,0.7,4.2,1.9l1.7-7.8H242.5z M229.9,316.7c0,1.4,0.4,3.2,2.2,3.2
		c2.6,0,4.1-3,4.1-5.5c0-1.6-0.8-3.2-2.5-3.2C231.1,311.2,229.9,314.7,229.9,316.7"/>
	<path id="XMLID_13_" class="st0" d="M251.1,311.4h-2.7l0.6-2.6h2.7c0.7-3.4,1.9-6.5,6-6.5c0.8,0,1.6,0.2,2.2,0.3l-0.8,2.6
		c-0.3-0.2-0.7-0.2-1.1-0.2c-1.9,0-2.4,2.3-2.7,3.8h3.1l-0.5,2.6h-3.1l-2.3,10.9h-3.5L251.1,311.4z"/>
	<path id="XMLID_16_" class="st0" d="M271.7,314.4c0,4.7-3.3,8.2-8.1,8.2c-3.8,0-6.1-2.4-6.1-6.2c0-4.5,3.5-8,8-8
		C269.1,308.5,271.7,310.7,271.7,314.4 M268,314.4c0-1.8-0.6-3.2-2.7-3.2c-2.8,0-4.2,3.1-4.2,5.5c0,1.8,0.7,3.2,2.8,3.2
		C266.6,319.9,268,316.8,268,314.4"/>
	<path id="XMLID_17_" class="st0" d="M274.6,310.6c0.1-0.6,0.2-1.2,0.3-1.8h3.4l-0.5,2.5h0.1c0.6-1.5,2.4-2.9,4-2.9
		c0.4,0,0.9,0,1.3,0.1l-0.7,3.4c-0.4-0.1-0.9-0.2-1.3-0.2c-2.5,0-3.7,2.2-4.1,4.4l-1.3,6.1h-3.5L274.6,310.6z"/>
	<path id="XMLID_18_" class="st0" d="M289.5,308.8h2.6l0.6-2.8l3.8-1.2l-0.9,4h3.1l-0.6,2.6H295l-1.3,5.9c-0.1,0.3-0.2,0.8-0.2,1.3
		c0,0.8,0.6,1.3,1.3,1.3c0.6,0,1.3-0.1,1.7-0.3l-0.6,2.7c-0.6,0.1-1.3,0.3-1.9,0.3c-2.4,0-4.1-0.9-4.1-3.5c0-1,0.2-2.1,0.5-3.2
		l1-4.6H289L289.5,308.8z"/>
	<path id="XMLID_19_" class="st0" d="M301.8,302.6h3.5l-1.7,7.5h0c1-0.9,2.3-1.6,3.8-1.6c2.7,0,4.4,1.7,4.4,4.3c0,1-0.3,2.1-0.4,2.9
		l-1.4,6.6h-3.5l1.3-6.4c0.2-0.9,0.4-1.8,0.4-2.8c0-1.1-0.8-1.9-1.9-1.9c-2.4,0-3.3,2.3-3.8,4.3l-1.4,6.8h-3.5L301.8,302.6z"/>
	<path id="XMLID_22_" class="st0" d="M316.5,316.7c0,2.5,1.3,3.4,3.8,3.4c1.4,0,2.8-0.4,4.1-1l-0.5,2.8c-1.4,0.4-2.9,0.8-4.3,0.8
		c-3.9,0-6.5-1.9-6.5-5.9c0-4.2,3.3-8.2,7.7-8.2c3.3,0,5.5,1.7,5.5,5.1c0,1-0.1,2-0.3,3H316.5z M322.9,314.2
		c0.1-0.3,0.1-0.6,0.1-0.9c0-1.4-0.8-2.3-2.2-2.3c-2.2,0-3.1,1.3-3.8,3.2H322.9z"/>
	<path id="XMLID_23_" class="st0" d="M343.5,311.7c-0.9-0.3-1.9-0.6-2.9-0.6c-1.1,0-2.4,0.3-2.4,1.4c0,1.7,4.6,2.3,4.6,5.6
		c0,3.5-3.1,4.6-6.1,4.6c-1.4,0-2.8-0.2-4.1-0.8l0.8-2.8c1,0.6,2,1.1,3.4,1.1c1.2,0,2.4-0.4,2.4-1.5c0-2.2-4.6-2.4-4.6-5.8
		c0-3.2,3.1-4.3,5.9-4.3c1.3,0,2.6,0.2,3.8,0.6L343.5,311.7z"/>
	<path id="XMLID_24_" class="st0" d="M348.8,308.8l1.3,10.1h0.1l5.4-10.1h3.9l-9.2,15.6c-1.1,1.8-2.4,3.8-5.4,3.8
		c-0.9,0-1.8-0.1-2.6-0.4l0.8-2.7c0.4,0.2,0.8,0.3,1.5,0.3c1,0,1.8-0.5,3.1-2.4l-2.4-14.2H348.8z"/>
	<path id="XMLID_25_" class="st0" d="M368.1,311.7c-0.9-0.3-1.9-0.6-2.9-0.6c-1.1,0-2.4,0.3-2.4,1.4c0,1.7,4.6,2.3,4.6,5.6
		c0,3.5-3.1,4.6-6.1,4.6c-1.4,0-2.8-0.2-4.1-0.8l0.8-2.8c1,0.6,2,1.1,3.4,1.1c1.2,0,2.4-0.4,2.4-1.5c0-2.2-4.6-2.4-4.6-5.8
		c0-3.2,3.1-4.3,5.8-4.3c1.3,0,2.6,0.2,3.8,0.6L368.1,311.7z"/>
	<path id="XMLID_26_" class="st0" d="M370.1,308.8h2.5l0.6-2.8l3.8-1.2l-0.9,4h3.1l-0.6,2.6h-3.1l-1.3,5.9c-0.1,0.3-0.2,0.8-0.2,1.3
		c0,0.8,0.5,1.3,1.3,1.3c0.6,0,1.3-0.1,1.7-0.3l-0.6,2.7c-0.6,0.1-1.3,0.3-1.9,0.3c-2.4,0-4.1-0.9-4.1-3.5c0-1,0.2-2.1,0.4-3.2
		l1-4.6h-2.5L370.1,308.8z"/>
	<path id="XMLID_29_" class="st0" d="M381.8,316.7c0,2.5,1.3,3.4,3.8,3.4c1.4,0,2.8-0.4,4.1-1l-0.4,2.8c-1.4,0.4-2.9,0.8-4.3,0.8
		c-3.9,0-6.5-1.9-6.5-5.9c0-4.2,3.3-8.2,7.7-8.2c3.3,0,5.5,1.7,5.5,5.1c0,1-0.1,2-0.3,3H381.8z M388.3,314.2c0-0.3,0.1-0.6,0.1-0.9
		c0-1.4-0.8-2.3-2.2-2.3c-2.2,0-3.1,1.3-3.8,3.2H388.3z"/>
	<path id="XMLID_30_" class="st0" d="M394.4,310.3c0.1-0.5,0.2-1.1,0.3-1.5h3.3l-0.3,1.8h0.1c0.9-1.4,2.5-2.1,4.1-2.1
		c1.6,0,3.3,0.9,3.4,2.6h0c0.9-1.8,2.9-2.6,4.8-2.6c2,0,3.7,1.7,3.7,3.7c0,1.2-0.3,2.6-0.6,3.7l-1.4,6.5h-3.5l1.4-6.6
		c0.2-0.8,0.4-2.1,0.4-2.9c0-1-0.8-1.6-1.7-1.6c-2.4,0-3,2.8-3.5,4.7l-1.4,6.4h-3.5l1.4-6.6c0.2-0.8,0.4-2.1,0.4-2.9
		c0-1-0.8-1.6-1.6-1.6c-2.4,0-3,2.9-3.5,4.7l-1.4,6.4H392L394.4,310.3z"/>
	<polygon id="XMLID_31_" class="st0" points="415.3,318.6 419,318.6 418.2,322.3 414.5,322.3 	"/>
	<polygon id="XMLID_32_" class="st0" points="422.3,309 420.3,309 420.3,308.4 424.9,308.4 424.9,309 422.9,309 422.9,315.1 
		422.3,315.1 	"/>
	<polygon id="XMLID_33_" class="st0" points="425.6,308.4 426.6,308.4 429.1,314.3 431.5,308.4 432.5,308.4 432.5,315.1 
		431.8,315.1 431.8,309.1 431.8,309.1 429.4,315.1 428.8,315.1 426.3,309.1 426.2,309.1 426.2,315.1 425.6,315.1 	"/>
	<path id="XMLID_34_" class="st1" d="M138.3,243.3c-1.7,6.7-3.4,13.6-5.1,20.6c7.4,4.8,14.7,9.6,22,13.6
		C149.7,267,144.1,255.4,138.3,243.3"/>
	<path id="XMLID_35_" class="st2" d="M138.3,243.3c6.7,4.7,13.2,9.6,19.6,14c-0.9,6.5-1.7,13.3-2.6,20.2
		C149.7,267,144.1,255.4,138.3,243.3"/>
	<path id="XMLID_36_" class="st2" d="M138.3,243.3c-1.7,6.7-3.4,13.6-5.1,20.6c-7.4-4.8-15-9.7-22.7-14
		C119.7,247,129.1,244.6,138.3,243.3"/>
	<path id="XMLID_37_" class="st3" d="M138.3,243.3c-6.7-4.8-13.5-9.4-20.3-13.7c-2.5,6.6-5,13.4-7.4,20.2
		C119.7,247,129.1,244.6,138.3,243.3"/>
	<path id="XMLID_38_" class="st1" d="M145.9,216c-1.1,3.8-2.3,7.8-3.4,11.9c6,4.8,11.8,9.7,17.4,14.4
		C155.3,234,150.7,225.1,145.9,216"/>
	<path id="XMLID_39_" class="st2" d="M145.9,216c5.4,4.8,10.6,9.8,15.6,14.8c-0.5,3.7-1,7.6-1.6,11.5
		C155.3,234,150.7,225.1,145.9,216"/>
	<path id="XMLID_40_" class="st3" d="M138.3,243.3c1.4-5.3,2.8-10.5,4.2-15.5c6,4.8,11.8,9.7,17.4,14.4
		C153,241.9,145.7,242.3,138.3,243.3"/>
	<path id="XMLID_41_" class="st1" d="M138.3,243.3c6.7,4.7,13.2,9.6,19.6,14c0.7-5.2,1.4-10.2,2-15.1
		C153,241.9,145.7,242.3,138.3,243.3"/>
	<path id="XMLID_42_" class="st4" d="M145.9,216c0.9-3.2,1.9-6.2,2.8-9.2c4.8,4.9,9.5,9.9,14,14.9
		C157.4,219.1,151.8,217.2,145.9,216"/>
	<path id="XMLID_43_" class="st0" d="M145.9,216c5.4,4.8,10.6,9.8,15.6,14.8c0.4-3.1,0.8-6.1,1.2-9
		C157.4,219.1,151.8,217.2,145.9,216"/>
	<path id="XMLID_44_" class="st0" d="M145.9,216c0.9-3.2,1.9-6.2,2.8-9.2c-4.8-4.9-9.9-9.6-15-14C137.9,200.6,141.9,208.4,145.9,216
		"/>
	<path id="XMLID_45_" class="st5" d="M145.9,216c-5.4-4.8-10.9-9.5-16.6-13.8c1.4-3.2,2.9-6.3,4.4-9.3
		C137.9,200.6,141.9,208.4,145.9,216"/>
	<path id="XMLID_46_" class="st2" d="M97.4,218.8c-3.2,6.7-6.3,13.5-9.4,20.2c7.3,2.7,15,6.5,22.6,10.9
		C106.2,239.3,101.8,228.8,97.4,218.8"/>
	<path id="XMLID_47_" class="st1" d="M97.4,218.8c6.8,2.9,13.7,6.6,20.6,10.8c-2.5,6.7-5,13.4-7.4,20.2
		C106.2,239.3,101.8,228.8,97.4,218.8"/>
	<path id="XMLID_48_" class="st6" d="M97.4,218.8c-3.2,6.7-6.3,13.5-9.4,20.2c-7.3-2.7-14.4-4.3-20.5-4.3
		C76.3,227.7,86.5,222.3,97.4,218.8"/>
	<path id="XMLID_49_" class="st7" d="M97.4,218.8c-6.8-2.9-13.4-4.9-19.5-5.6c-3.6,7.3-7.1,14.5-10.4,21.5
		C76.3,227.7,86.5,222.3,97.4,218.8"/>
	<path id="XMLID_50_" class="st7" d="M112.1,190.5c-2.3,4-4.6,8.2-6.8,12.4c-6.3-3.1-12.5-5.5-18.4-6.9
		C94.8,192.7,103.4,190.8,112.1,190.5"/>
	<path id="XMLID_51_" class="st8" d="M112.1,190.5c-5.8-3.4-11.6-6.1-17.2-8.1c-2.7,4.4-5.4,8.9-7.9,13.5
		C94.8,192.7,103.4,190.8,112.1,190.5"/>
	<path id="XMLID_52_" class="st8" d="M97.4,218.8c2.6-5.4,5.2-10.7,7.9-15.9c-6.3-3.1-12.5-5.5-18.4-6.9
		C90.3,203.2,93.9,210.9,97.4,218.8"/>
	<path id="XMLID_53_" class="st6" d="M97.4,218.8c-6.8-2.9-13.4-4.9-19.5-5.6c2.9-5.8,5.9-11.6,9-17.2
		C90.3,203.2,93.9,210.9,97.4,218.8"/>
	<path id="XMLID_54_" class="st0" d="M112.1,190.5c1.9-3.3,3.8-6.6,5.8-9.7c5.4,3.5,10.7,7.6,15.8,12
		C126.6,191,119.3,190.2,112.1,190.5"/>
	<path id="XMLID_55_" class="st4" d="M112.1,190.5c5.8,3.4,11.6,7.3,17.3,11.6c1.4-3.2,2.9-6.3,4.4-9.3
		C126.6,191,119.3,190.2,112.1,190.5"/>
	<path id="XMLID_56_" class="st8" d="M112.1,190.5c1.9-3.3,3.8-6.6,5.8-9.7c-5.4-3.5-10.8-6.6-16.1-9
		C105.2,177.9,108.7,184.1,112.1,190.5"/>
	<path id="XMLID_57_" class="st6" d="M112.1,190.5c-5.8-3.4-11.6-6.1-17.2-8.1c2.3-3.6,4.6-7.2,7-10.6
		C105.2,177.9,108.7,184.1,112.1,190.5"/>
	<path id="XMLID_60_" class="st9" d="M201.3,283.6c-14.3,0-24.3-10.9-24.3-24c0-13.2,10.1-24.2,24.4-24.2c14.3,0,24.3,10.8,24.3,24
		C225.8,272.6,215.6,283.6,201.3,283.6 M201.3,242.9c-9.3,0-15.7,7.4-15.7,16.5c0,9.1,6.6,16.6,15.8,16.6c9.3,0,15.7-7.4,15.7-16.5
		C217.2,250.4,210.6,242.9,201.3,242.9"/>
	<path id="XMLID_63_" class="st9" d="M250.8,267.8h-9.3v15h-8.2v-46.6h18.4c10.9,0,17.7,6.1,17.7,15.6
		C269.4,262.3,261,267.8,250.8,267.8 M251,243.6h-9.5v16.8h9.5c6.2,0,10-3.4,10-8.4C261.1,246.5,257.2,243.6,251,243.6"/>
	<polygon id="XMLID_64_" class="st9" points="296.5,282.8 288.3,282.8 288.3,243.8 273.5,243.8 273.5,236.2 311.3,236.2 
		311.3,243.8 296.5,243.8 	"/>
	<path id="XMLID_65_" class="st9" d="M358.4,262.6c0,13.9-7.9,20.9-20,20.9c-12.1,0-19.8-7-19.8-20.5v-26.8h8.2v26.5
		c0,8.6,4.5,13.3,11.8,13.3c7.2,0,11.7-4.4,11.7-13v-26.8h8.2V262.6"/>
	<polygon id="XMLID_66_" class="st9" points="390.2,271.3 390,271.3 375.4,249.5 375.4,282.8 367.3,282.8 367.3,236.2 376.1,236.2 
		390.2,258.2 404.4,236.2 413.1,236.2 413.1,282.8 404.9,282.8 404.9,249.4 	"/>
</g>
</svg>
